<svg width="1600" height="900" viewBox="0 0 1600 900" fill="none" xmlns="http://www.w3.org/2000/svg">
  <rect width="1600" height="900" rx="64" fill="#08131D"/>
  <rect x="72" y="72" width="1456" height="756" rx="44" fill="#102635"/>
  <ellipse cx="1320" cy="180" rx="160" ry="160" fill="#F28B4B" fill-opacity="0.12"/>
  <ellipse cx="1348" cy="720" rx="210" ry="210" fill="#F28B4B" fill-opacity="0.08"/>
  <ellipse cx="800" cy="538" rx="232" ry="34" fill="#03070B" fill-opacity="0.28"/>
  <circle cx="800" cy="450" r="250" fill="#F4F0EA"/>
  <circle cx="800" cy="450" r="220" fill="#FFFDFC"/>
  <path d="M684 246C742 314 742 586 684 654" stroke="#D74F47" stroke-width="18" stroke-linecap="round"/>
  <path d="M916 246C858 314 858 586 916 654" stroke="#D74F47" stroke-width="18" stroke-linecap="round"/>
  <path d="M650 296C700 350 700 550 650 604" stroke="#D74F47" stroke-width="10" stroke-linecap="round" stroke-dasharray="14 18"/>
  <path d="M950 296C900 350 900 550 950 604" stroke="#D74F47" stroke-width="10" stroke-linecap="round" stroke-dasharray="14 18"/>
  <ellipse cx="730" cy="374" rx="72" ry="58" fill="#FFFFFF" fill-opacity="0.42"/>
</svg>
